<svg viewBox="0 0 800 600" fill="none" xmlns="http://www.w3.org/2000/svg">
  {/* Background */}
  <circle cx="400" cy="300" r="250" fill="#EEF2FF" opacity="0.3"/>
  
  {/* Left Person (Developer) */}
  <g>
    {/* Head */}
    <circle cx="280" cy="250" r="40" fill="#6366F1"/>
    {/* Body */}
    <path d="M240,300 Q280,290 320,300 L320,400 Q280,410 240,400 Z" fill="#6366F1"/>
    {/* Screen/Device */}
    <rect x="220" y="320" width="120" height="80" rx="10" fill="#F8FAFC"/>
    <rect x="230" y="330" width="100" height="60" rx="5" fill="#4F46E5"/>
    {/* Code Lines */}
    <rect x="240" y="340" width="80" height="4" fill="#F8FAFC" opacity="0.8"/>
    <rect x="240" y="350" width="60" height="4" fill="#F8FAFC" opacity="0.8"/>
    <rect x="240" y="360" width="70" height="4" fill="#F8FAFC" opacity="0.8"/>
  </g>

  {/* Right Person (Client) */}
  <g>
    {/* Head */}
    <circle cx="520" cy="250" r="40" fill="#4F46E5"/>
    {/* Body */}
    <path d="M480,300 Q520,290 560,300 L560,400 Q520,410 480,400 Z" fill="#4F46E5"/>
    {/* Document */}
    <rect x="490" y="320" width="60" height="80" rx="5" fill="#F8FAFC"/>
    <rect x="500" y="330" width="40" height="4" fill="#4F46E5"/>
    <rect x="500" y="340" width="40" height="4" fill="#4F46E5"/>
    <rect x="500" y="350" width="40" height="4" fill="#4F46E5"/>
  </g>

  {/* Central Connection */}
  <g>
    {/* Main Connection Circle */}
    <circle cx="400" cy="300" r="25" fill="#A5B4FC"/>
    
    {/* Connecting Lines */}
    <path d="M330,300 L375,300" stroke="#6366F1" strokeWidth="3"/>
    <path d="M425,300 L470,300" stroke="#4F46E5" strokeWidth="3"/>
    
    {/* Pulse Effect */}
    <circle cx="400" cy="300" r="35" stroke="#6366F1" strokeWidth="2" opacity="0.5">
      <animate
        attributeName="r"
        from="25"
        to="45"
        dur="1.5s"
        repeatCount="indefinite"
      />
      <animate
        attributeName="opacity"
        from="0.5"
        to="0"
        dur="1.5s"
        repeatCount="indefinite"
      />
    </circle>
  </g>

  {/* Connection Dots */}
  <circle cx="330" cy="300" r="5" fill="#6366F1"/>
  <circle cx="470" cy="300" r="5" fill="#4F46E5"/>
</svg>